<?xml version="1.0" encoding="UTF-8" standalone="no"?> <svg xmlns="http://www.w3.org/2000/svg" width="512.001" height="472.671" viewBox="0 0 512.001 472.671">
  <g id="Layer_x0020_1" transform="translate(-94 -113.653)">
    <path id="Path_284" data-name="Path 284" d="M228.156,377.957a5.913,5.913,0,0,1-1.428-1.41l-.08-.115A6.029,6.029,0,0,0,228.156,377.957Zm60.122,36.418a6.032,6.032,0,0,1,.467-.977ZM240.393,514.59a5.984,5.984,0,0,1,.5-1.042Zm-14.786-141.6,0-177.063H106V461.305l-3.422-1.645a5.975,5.975,0,0,0-5.157,10.781l.493.236,137.809,66.26.489.262a6,6,0,0,0,8-2.828l-.022-.011,5.6-11.72,5.734-12L297.66,422.46l5.542-11.6.159-.286c.02-.039.04-.078.059-.117a6,6,0,0,0-2.6-7.98l-.013.02-63.249-33.058-3.21-1.678a5.977,5.977,0,0,0-8.743,5.225Zm-104.3-166.63a6,6,0,0,1,6,6V440.326l108.673,50.712a5.977,5.977,0,1,1-5.062,10.828l-111.645-52.1a6.005,6.005,0,0,1-3.966-5.646V212.359a6,6,0,0,1,6-6Z" fill="#537ce2" fill-rule="evenodd"/>
    <path id="Path_285" data-name="Path 285" d="M479.149,409.956a6,6,0,0,0,12,0c0-18.684,8.185-30.5,18.66-35.55a29.349,29.349,0,0,1,25.331,0c10.475,5.049,18.66,16.867,18.66,35.55a6.168,6.168,0,0,0,.043.712c.227,3.561,2.4,4.475,5.942,6,7.773,3.343,34.215,14.714,34.215,48.32A52.3,52.3,0,0,1,583.05,497.43a42.569,42.569,0,0,1-26.929,16.153l0,0a6,6,0,0,0-5.039,6.827l.057.318c3.9,22.525-4.237,38.3-16.616,46.611a41.824,41.824,0,0,1-19.389,6.849,40.42,40.42,0,0,1-20.065-3.174c-12.985-5.75-23.059-19.277-23.059-41.417a6,6,0,0,0-12,0c0,27.669,13.208,44.846,30.23,52.384a52.3,52.3,0,0,0,25.97,4.111,53.831,53.831,0,0,0,24.969-8.817c14.93-10.026,25.163-28.019,22.545-53.057a55.249,55.249,0,0,0,28.752-19.379A64.276,64.276,0,0,0,606,464.988c0-39.906-29.644-54.183-40.3-58.824-1.115-21.81-11.836-36.021-25.358-42.54a41.059,41.059,0,0,0-35.739,0c-14.291,6.889-25.456,22.368-25.456,46.331Z" fill="#006"/>
    <path id="Path_286" data-name="Path 286" d="M369.772,469.812a5.995,5.995,0,1,0,.938,11.953c.321-.026,112.015-9.536,127.722,39.178a5.982,5.982,0,0,0,11.391-3.657c-18.655-57.857-139.7-47.5-140.051-47.474Z" fill="#006"/>
    <path id="Path_287" data-name="Path 287" d="M369.556,432.061a5.976,5.976,0,1,0-3.468,11.438c.334.1,116.415,36,146.955-16.543a5.985,5.985,0,0,0-10.358-6C476.955,465.224,369.864,432.154,369.556,432.061Z" fill="#006"/>
    <path id="Path_288" data-name="Path 288" d="M246.033,510.641a6,6,0,1,0,0,12H314.2a6,6,0,0,0,6-6V416.46a6,6,0,0,0-6-6h-20.29a6,6,0,0,0,0,12H308.2v88.181H246.033Z" fill="#006"/>
    <path id="Path_289" data-name="Path 289" d="M127.311,212.359a6,6,0,1,0-12,0V444.121a6.005,6.005,0,0,0,3.966,5.646l111.645,52.1a5.977,5.977,0,1,0,5.062-10.828L127.311,440.326V212.359Z" fill="#006"/>
    <path id="Path_290" data-name="Path 290" d="M214.747,173.482a6,6,0,0,0,12,0V119.653a6,6,0,0,0-6-6H111.594a6,6,0,1,0,0,12H214.747v47.829Z" fill="#006"/>
    <path id="Path_291" data-name="Path 291" d="M94,465.05a6,6,0,0,0,12,0V195.926H225.6l0,177.135a5.976,5.976,0,1,0,11.953,0l0-182.6c.015-.175.024-.352.024-.53a6,6,0,0,0-6-6H100a6,6,0,0,0-6,6V465.05Z" fill="#006"/>
    <path id="Path_292" data-name="Path 292" d="M234.35,367.764a5.976,5.976,0,1,0-5.532,10.594l61.349,32.065L235.991,523.8,102.579,459.659a5.975,5.975,0,1,0-5.157,10.781l138.3,66.5q.236.142.489.262a6,6,0,0,0,8-2.828l-.022-.011,59.01-123.5.159-.286a6,6,0,0,0-2.538-8.1l-.013.02-66.46-34.736Z" fill="#006"/>
    <path id="Path_293" data-name="Path 293" d="M117.594,119.653a6,6,0,1,0-12,0V156.47a6,6,0,1,0,12,0Z" fill="#006"/>
    <path id="Path_294" data-name="Path 294" d="M297.659,422.46l-42.134,88.181H308.2V422.46Z" fill="#fff" fill-rule="evenodd"/>
  </g>
</svg>
